<?xml version="1.0" encoding="UTF-8"?>
<svg id="Layer_1" data-name="Layer 1" xmlns="http://www.w3.org/2000/svg" viewBox="0 0 223 207">
  <defs>
    <style>
      .cls-1 {
        fill: #fff;
      }
    </style>
  </defs>
  <path class="cls-1" d="M93.86,199.8c-18.05-3.27-34.76-10.67-48.21-22.85-3.35-3.03-6.31-5.98-9.33-9.31-13.48-14.86-21.97-35.76-23.69-55.75-.54-6.28-.52-12.45.03-18.69C15.67,58.99,37.37,28.7,68.27,14.3c7.95-3.71,16.19-5.88,24.67-7.45,4.3-.79,8.32-.77,12.47-1.16s8.16-.37,12.7.12c21.75,2.35,42.52,11.61,58.15,26.86,20.97,20.48,30.62,45.97,29.35,75.36-1.22,28.24-15.02,54.53-37.15,71.93-13.22,10.4-28.33,17.35-45.02,19.93-6.29.97-22.81,1.13-29.58-.1ZM122.36,195.84c38.15-5.47,69.31-36.22,77.3-73.37,3.46-16.1,2.03-37.06-3.93-52.33-5.32-13.62-12.9-25.81-23.72-35.59-5.92-5.35-11.81-9.9-18.86-13.6-4.84-2.54-9.48-5.05-14.72-6.74-10.67-3.44-21.53-5.37-32.73-4.77-13.21.71-24.55,3.22-36.52,8.96-17.58,8.43-31.91,22.28-41.3,39.34-3.53,6.42-6.09,12.87-8.18,19.8-4.87,16.08-4.42,37.97.97,53.94,11.7,34.67,40.23,59.64,76.73,64.8,8.43,1.19,16.22.83,24.97-.43Z"/>
  <path class="cls-1" d="M124.97,166.57c-14.79-1.82-29.71-.79-44.72,2.29-.48-2.36-.44-4.54-.19-6.79l.91-8.11c.37-3.31.82-6.86-.6-10.16-2.52-5.85-5.3-11.47-6.67-17.91-1.44.85-1.55,2.04-1.96,3.21-2.06,5.91-5.63,10.79-10.86,14.28-1.56,7-1.7,9.18-6.23,14.79-2.7,3.34-7.1,4.13-11.03,2.25s-7.38-5.55-8.29-9.82c-1.28-5.98.79-11.33,5.21-15.04,1.92-5.26,2.12-15.73,7.28-21.22l3.71-3.95c-1.63-10.24-1.16-19.13,7.52-25.91,5.14-4.01,11.77-5.42,18.33-4.03,3.15-3,6.68-4.8,10.75-5.9,1.38-.37,2.32-1.91,1.43-3.14-2.54.88-4.62,1.67-7.24,2.08-2.41.38-5.87-1.48-5.22-4.38.54-2.41,2.28-4.77,1.01-7.39-.48-.98-.91-2.08-.44-3.35-1.33-.45-3.08-.62-3.44-1.98-.37-1.94,1.37-3.84,1.17-5.82-.21-2.19.26-3.75.67-5.7l1.68-7.96c.32-1.53-.01-2.64-.98-3.8-1.27-1.51-2.12-4.33-.32-5.61.61-.44,2,.34,2.37-.35l1.1-2.08c1.84,1.65,3.51,1.58,5.32.62,3.75-1.98,7.86-2.49,12.06-3.05,5.5-.73,11.29-.08,16.04,3,1.26.81,2.38,2.04,3.51,3.02,4.48,3.87,5.6,12.55,4.55,18.22-.34,1.84-1,3.67-1.59,5.39-.72,2.1-.85,4.08-1.34,6.18-1.59,6.8,1.7,13.18,8.27,15.81,2.2.88,4.38,1.77,6.49,2.99,7.17,4.15,3.29,2.8,11.82,3.55,5.21.46,10.5,2.63,14.12,6.52,3.31,3.56,4.44,8.39,5.16,13.04,1.22,7.87-2.28,8.91,1.61,12.19,6.54,5.51,8.11,13.58,8.75,21.76,7.02,7.56,6.25,9.82,7.24,19.61-.75,3.69-8.69,10.45-12.47,7.66-5.78-4.27-9.08-11.1-9.94-18.04-5.44-2.82-8.8-9.41-10.62-15.01-.35-1.08-.69-2.11-1.66-3.02l-1.22,5.92c-1.5,7.32-8.67,12.21-7.06,22.74.72,4.72.76,9.51.54,14.44-3.21-.06-5.9-.97-8.99-1.35l-5.53-.68ZM87.24,43.2c-3.46-3.1.86-6.45.09-10.09-2.47-.12-5.05.63-6.99,2.11l-1.87,10.13c1.42-.17,12.36,1.07,8.78-2.14ZM104.27,125.17c-.61.28-3.21,7.26-8.89,7.73,2.73-5.13,8.93-8.26,6.14-13.97-1.32-2.69-1.74-5.21-3.02-8.52-5.43,8.25-14.83,9.06-22.95,4.02.53,7.46,4.09,13.29,9.26,18.22,1.52,1.45,2.95,3.04,4.76,4.22,3.63,2.38,6.6,5.46,8.1,9.64.21.59.01,1.22-.45,1.46-.75.4-1.53-2.09-4.86-4.84l-13.13-10.85c1.12,4.14,3.47,7.75,6.1,10.94s5.97,5.87,7.57,9.96c.7,1.8,1.72,3.72.96,5.67-.18.45-1.29.28-1.59.11s-.35-.82-.52-1.38c-1.12-3.73-3.45-6.77-6.37-9.75-.76,3,.03,5.71-.39,8.62l-1.17,8.23c.67,1.03,1.69.39,2.61.12,7.2-2.08,14.55-2.64,22.03-2.43,1.3.04,1.97-.6,1.97-1.95l.14-95.63c0-2.08,1.32-3.63.69-5.87-5.3-1.01-4.14-4.25-6.02-4.38-1.13-.08-3,5.82-7.28,2.36,3.02-.8,4.91-1.95,5.78-4.63.81-2.5.61-5.65-1.48-7.46-1.54-1.33-3.48-.19-4.78.55-2.42,1.38-2.95,3.18-2.54,5.73.46,2.82,1.04,5.4,1.84,8.12,1.11,3.81-.87,7.88-3.33,10.61-.75.84-1.23,1.81-.56,2.61,8.26-4.39,5.49-8.06,7.03-10.35,1.67-2.48,3.35,5.2-1.69,9.63-6.19,5.44-10.41,4.27-16.83,9.18.91,1.49,2.33,1.76,3.44,2.69,4.46,3.74,7.5-2.6,14.73,1.74,1.32.79,3.07,1.18,2.56,3.86-8.75-4.97-15.4.53-17.13-1.1-2.44-2.31-5.04-4.6-8.42-4.99-7.11-.82-13.69,1.54-18.01,6.78-6.23,7.57-4.97,18.88-2.22,19.88.4.15.95-.41,1.44-.57l15.09-4.85c5.68-1.83,7.65-6.52,10.06-11.77,1.8,1.21,1.28,3.1.9,4.67-.98,4.08-3.82,7.01-7.44,9.48.41,3.02,2.76,5.45,4.78,6.58,4.52,2.53,10.26.93,13.24-3.4,5.62-8.15.76-7.66,3.39-10.44,1.22.37,2.11,1.98,2.43,3.42,1.83,8.32,4.31,16.18,7.26,24.17.25.67.16,1.33-.14,1.98-2.14-.93-1.94-4.4-3.09-3.86ZM76.76,56.2c1.08.54,2.27-.1,2.94.61,1.25,1.31,2.81,2.55,4.83,2.69,4.67-2.07,7.58-7.3,5.74-12.22-3.11-.18-6,.31-9.06.53-1.71,1.02.7,4.71-1.67,6.02-.68.38-1.59-.04-2.74-.72-.63.57-.99,2.63-.05,3.1ZM78.92,51.96c.79-1.56-.18-2.77-1.05-3.98-.7,1.45-.78,3.68,1.05,3.98ZM113.23,60.89c-.36.76.1,1.15.52,1.48.25.2.64-.03.79-.42.12-.31,0-.84-.18-1.14s-.9-.41-1.13.08ZM113.68,64.23c-.7.43-.86,1.14-.29,1.71.26.26.65.72,1.08.15.27-.36.54-.91.37-1.29-.14-.32-.65-.88-1.16-.57ZM113.67,70.44c1.23.13,1.74-.54,1.76-1.19.01-.58-.51-1.18-1.18-1.18-.49,0-.9.32-1.17.96-.22.51-.35,1.31.59,1.41ZM116.67,72.04c-.93-.73-2.36-.76-3.19-.09-.59.48-.49,1.56-.13,2,.5.6,3.64.82,3.85-.28.09-.46.13-1.13-.52-1.63ZM117.58,76.45c-.31-1.27-2.48-1.01-3.43-.63-.69.27-1.65,1.29-1.2,2.36.39.94,2.09.77,2.97.51.71-.21,2.02-.79,1.67-2.23ZM125.93,85.02c.47-4.65-12.69-6.66-12.8-3.28-.02.59.15,1.77.97,1.99,3.12-2.03,6.78-2.1,9.52.52-.47,1.05-8.45-1.2-7.06.91.73,1.1,8.31.81,9.36-.14ZM131.16,87.58c7.98-3.54,10.32,2.09,14.61-2.54-1.42-1.84-3.49-1.17-5.22-1.47-12.44-2.2-13.01,8.13-27.06,2.19-.69,1.48-.7,3.39.1,4.5,1.66.17,2.93-1.15,4.44-1.32,4.91-.55,2.58,3.32,13.13-1.35ZM150.69,90.27c-.07-.45-.08-1.29-.88-1.57-5.45-1.96-7.55,1.86-9.25.85s-3.33-2.33-5.39-1.9c-.8,2.58,3.96,1.5,2.77,7.35.65,1.47,1.8,2.87,3.1,4.12,1.02-1.32,1.03-2.66,1.46-4,2.15-6.53,8.62-1.86,8.18-4.85ZM132.65,90.72c-.71-2.51-4.68,2.22-10.68.36-.93-.29-1.65.45-1.68,1.11-.18,3.46,13.12,1.19,12.36-1.48ZM118.13,93.89c.47-1,.61-2.1-.03-2.93l-4.88,1.35c-.29,1.19-.29,2.51.12,3.6,2.08-.23,4.12-.64,4.79-2.02ZM126.5,98.9c3.82.43,7.98-1.29,9.19-4.9.26-.78-.08-1.67-.48-1.88-2.33-1.22.16,5.71-15.75,3-1.15-.2-1,2.88,7.03,3.78ZM172.45,144.51c.84.25,1.86.47,2.65.11,1.13-3.07-3.17-4.72-4.82-8.01l-14.85-29.67c-1.71-3.42-3.49-6.4-3.61-10.39-.04-1.27-.88-2.58-1.69-2.94-1.03-.46-2.3-.65-3.61-.22-2.46.81-3.57,5.16-1.51,6.94,5.49,4.74,7.32,11.49,10.86,17.87,2.35,4.23,7.65,15.01,8.71,19.37,1.36,5.57-2.46,7.71.97,9.58,1.81.99,2.98-3.79,6.9-2.63ZM117.8,98.39c.29-2.33-4.18-.95-4.48-.31-.43.93-.43,1.83-.03,2.82,1.45.03,4.27-.59,4.51-2.51ZM135.52,102.94c1.5-.87,2.56-3.12,2.21-4.58-.14-.6-.61-1.31-.94-1.2-1.36.44-1.59,3.83-7.78,3.99-3.38.09-6.36-.46-9.26-2.04-.81.75-.7,1.52-.43,2.38.5,1.59,10.59,4.68,16.2,1.45ZM140.14,104.31c.38-1.12,0-2.22-1.09-2.62-2.69,7.8-13.22,5.72-19.05,3.11-.65-.01-.86,1.04-.85,1.47.04,2.53,17.36,8.74,20.99-1.96ZM117.15,104.54c.44-.83.13-1.74-.2-2.17-.27-.36-3.49.12-3.77,1.51-.16.77-.04,1.71.62,2.46,1.1,0,2.69-.57,3.35-1.81ZM117.51,109.85c.54-.92.06-1.54-.29-1.81-.9-.71-3.81.09-4.04,1.35-.13.69-.32,2.01.52,2.33,1.39.54,3.03-.53,3.81-1.86ZM138.31,114.85c2.74-1.58,4.63-4.62,2.71-7.69-1.26,2.76-2.73,4.48-5.33,5.24-8.92,2.59-15.03-2.55-16.16-2.05-3.94,1.74,10.57,9.23,18.78,4.5ZM51.6,143.69c3.92-1.38,7.88-3.07,10.63-5.96,4.81-5.07,8.31-11.84,8.57-18.74l.38-10.02c-4.86,1.13-9.11,1.96-13.19,4.06-1.25.64-1.91,2.35-3.45,2.46-.55-.21-1.15-1.2-1.64-.89-.47.3-1.38.55-1.83,1.14-5.61,7.28-7.08,16.85-5.15,25.91,1.4,1.12,3.49,2.83,5.69,2.06ZM117.34,115.42c.28-1.14-.04-1.79-.37-2.1-.42-.4-3.69.31-3.79,1.08-.08.67-.27,2.09.52,2.7.86.68,3.32-.41,3.64-1.68ZM119.97,118.54c5.74,3.28,17.36,8.26,21.91.99.98-1.56.85-3.46.23-5.09-3.66,8.66-16.97,4.72-22.57.37-1.36,1.11-.95,2.93.43,3.72ZM116.48,119.49c-.11-1.58-2.28-.7-2.8-.07-.71.86-.58,1.95.01,3.16.38.51,1.47-.12,1.97-.3.75-.28.91-1.28.81-2.78ZM142.19,122.04l-3.35,3.9c-8.15,5.18-20.27-7.03-20.66-4.62-.05.29-.22,1.21.15,1.52,4.79,3.95,13.41,9.89,19.76,6.79,3.03-1.48,5.18-4.13,4.11-7.59ZM115.98,124.3c-.8-.62-2.13-.17-2.48.39-.3.49-.63,1.43-.21,2.14.54.91,1.82.32,2.4,0,.75-.4,1.06-1.94.29-2.54ZM129.21,136.36c3.87,1.07,6.6,1.29,9.1-.5,1.65-1.7,3.66-3.6,2.14-6.33-1.83,3.6-4.18,5.16-7.71,4.42-7.05-1.48-9.14-5.14-14.76-7.98-2.54,2.23,5.7,5.31,8.25,10.4,1.48,2.95,3.05,6.84,6.91,7.26,2.69.29,5.17-3.02,5.34-5.48-1.75.24-2.23,2.03-3.87,2.73-2.45.02-5.68-1.84-5.39-4.53ZM115.73,131.92c1.05-.45,1.34-1.43.93-2.33-.23-.51-.79-.86-1.73-.68-1.08.2-2.07.08-1.91,1.33.07.53-.17,1.4.5,1.94.44.34,1.33.12,2.2-.25ZM117.19,133.95c-1.32-.21-2.61-.47-3.82.05-.77.34-.63,1.48-.54,2.08.11.71.65,1.41,1.66,1.37.93-.04,1.94-.25,2.4-.79.54-.63.48-1.58.3-2.7ZM122.23,137.69c-1.04-1.3-2.23-2.33-3.46-2.01-.65,1.2.16,2.11,1.22,2.46.83.28,1.83.53,2.24-.45ZM48.15,154.35c-.28.57-1.14.37-1.41.2-.22-.14-.31-.41-.21-.96.4-2.07,1.31-3.91,1.47-6.13-.28-1.1-1.86-1.6-2.77-1.83-.35.95-.4,1.96-1.52,1.79-.53-2.93-.83-5.6-1.93-8.48-2.9,2.94-3.99,6.9-3.47,10.99.46,3.67,3.06,6.01,6.17,7.56,2.58,1.29,5.11,1.5,7.1-.93,2.32-2.83,3.79-6.24,4.39-9.91-2.29-.45-4.27.53-5.24,2.5l-2.57,5.2ZM117.69,142.5c.33-1.31.18-2.33-.43-3.32-1.38-.33-2.66-.28-4.08.05-.54,1.36-.63,2.77-.15,4.08,1.7.3,3.2.19,4.66-.81ZM120.16,148.19c-.06-1.84-1.01-.05-3.57-2.73-1.09-.52-2.51.29-3.68.45-.22,1.33-.34,2.73.14,3.84,1.28.88,7.13-.96,7.12-1.56ZM176.39,145.32c-1.08,1.63-2.47,1.91-4.07.9-.42-.27-1.02-.28-1.33-.29-.4,0-1,.44-.76,1.04.63,1.54,2.28,2.3,3.2,3.67,1.46,2.18,1.42,4.96,3.28,6.95,1.66-.57-.29-9.26-.32-12.27ZM167.89,149.5c2.39,3.68,2.75,8.01,4.76,9.76,2.65.67-1.25-12.88-4.76-9.76ZM120.38,153.76c.06.3-5.13-3.44-7.36-1.6-.59,1.11-.54,2.99-.02,4.06,1.6.58,7.83-.28,7.37-2.46ZM120.79,161.12c-.53-1.77-1.56-1.17-2.39-1.28-1.45-1.87-3.39-2.09-5.55-1.31-.26,1.05-.32,2.56.49,3.59,2.45.63,5.1.31,7.45-1Z"/>
  <path class="cls-1" d="M70.67,89.17c-7.27,4.57-8.51,7.33-12.5,14.93-1.57-2.02-.38-3.85.29-5.58,2.08-5.35,6.22-9.88,12.16-11.15.72-.16.54,1.49.05,1.8Z"/>
  <path class="cls-1" d="M105.94,106.81c-2.7-.57-1.88-3.56-3.21-5.11-1.68-3.87-5.4-5.51-9.7-6.39,1.86-2.34,4.41-1.45,6.57-.38,4.09,2.02,6.84,6.93,6.34,11.88Z"/>
  <path class="cls-1" d="M99.4,54.02c-2.16-1.82,4.53-5.11-.64-5.43-.71-.35-.18-1.26.22-1.48.64-.36,1.56-.26,2.37.14,1.27.62,1.1,2.53.85,3.87-.19,1.04-1.23,2.31-2.79,2.91Z"/>
  <path class="cls-1" d="M59.1,120.47c-2.24,3.7-5.86,12.51-6.13,16.94-.29.34-1.22.26-1.57-.11-.31-.32-.44-.95-.46-1.78-.21-9.4,6.95-16.94,7.85-16.43.28.16.58.94.31,1.38Z"/>
</svg>